<?xml version="1.0" encoding="iso-8859-1"?>
<!-- Generator: Adobe Illustrator 19.0.0, SVG Export Plug-In . SVG Version: 6.00 Build 0)  -->
<svg version="1.1" id="Layer_1" xmlns="http://www.w3.org/2000/svg" xmlns:xlink="http://www.w3.org/1999/xlink" x="0px" y="0px"
	 viewBox="0 0 512 512" style="enable-background:new 0 0 512 512;" xml:space="preserve">
<g>
	<path style="fill:#11544F;" d="M422.804,512H89.196c-7.633,0-13.821-6.188-13.821-13.821s6.188-13.821,13.821-13.821h333.609
		c7.632,0,13.821,6.188,13.821,13.821S430.438,512,422.804,512z"/>
	<path style="fill:#11544F;" d="M423.548,353.139h-64.813c-7.632,0-13.821-6.188-13.821-13.821s6.189-13.821,13.821-13.821h64.813
		c13.159,0,23.863-10.706,23.863-23.863c0-13.159-10.704-23.865-23.863-23.865H88.452c-13.159,0-23.863,10.706-23.863,23.865
		c0,13.159,10.706,23.863,23.863,23.863h199.336c7.632,0,13.821,6.188,13.821,13.821s-6.189,13.821-13.821,13.821H88.452
		c-28.401,0-51.506-23.106-51.506-51.506c0-28.401,23.105-51.507,51.506-51.507h335.096c28.4,0,51.506,23.106,51.506,51.507
		C475.054,330.033,451.947,353.139,423.548,353.139z"/>
	<path style="fill:#11544F;" d="M377.869,512H134.131c-6.594,0-12.269-4.658-13.556-11.123l-31.61-158.862
		c-1.49-7.487,3.371-14.764,10.858-16.252c7.487-1.49,14.764,3.371,16.252,10.858l29.397,147.738h221.055l29.397-147.738
		c1.489-7.487,8.776-12.353,16.252-10.858c7.487,1.49,12.349,8.767,10.858,16.252l-31.61,158.861
		C390.138,507.342,384.463,512,377.869,512z"/>
</g>
<path style="fill:#6AB797;" d="M314.891,124.8c132.818-76.659-58.89-187.307-58.89-33.99c0-153.317-191.708-42.668-58.89,33.99
	c-132.818-76.659-132.818,144.639,0,67.98c-132.818,76.659,58.89,187.307,58.89,33.99c0,153.317,191.708,42.668,58.89-33.99
	C447.709,269.438,447.709,48.142,314.891,124.8z M256.001,225.283c-36.724,0-66.495-29.771-66.495-66.495
	s29.771-66.495,66.495-66.495s66.495,29.771,66.495,66.495S292.725,225.283,256.001,225.283z"/>
<g>
	<path style="fill:#11544F;" d="M204.252,316.867c-30.066,0-58.383-20.834-65.875-48.791c-2.376-8.866-4.399-25.825,6.434-45.317
		c-40.139-0.546-61.132-32.504-61.132-64.137c0-31.636,20.994-63.629,61.133-64.174c-10.827-19.488-8.807-36.547-6.432-45.41
		C145.869,21.077,174.194,0,204.263,0c19.079,0,38.945,8.638,51.736,30.1c12.791-21.46,32.658-30.094,51.736-30.094
		c30.075,0,58.4,21.085,65.891,49.045c2.374,8.865,4.394,25.939-6.435,45.427c40.136,0.546,61.129,32.56,61.131,64.188
		c0.003,31.638-20.989,63.667-61.133,64.215c10.827,19.486,8.807,36.561,6.432,45.424c-7.49,27.96-35.813,49.045-65.885,49.047
		c-18.394,0-34.897-8.034-46.466-22.624c-1.878-2.368-3.618-5.13-5.222-7.801c-12.789,21.517-32.68,29.941-51.781,29.941
		C204.263,316.867,204.255,316.867,204.252,316.867z M210.933,192.655c0,4.778-2.478,9.425-6.915,11.984
		c-29.771,17.182-43.965,37.542-38.942,56.281c4.22,15.742,21.793,28.306,39.176,28.306c0.003,0,0.006,0,0.008,0
		c23.743,0,37.919-23.334,37.919-62.808c0-7.633,6.188-13.699,13.821-13.699c7.632,0,13.821,6.249,13.821,13.882
		c0,22.483,4.532,40.11,13.105,50.922c7.971,10.049,17.89,12.172,24.809,12.172c17.388,0,34.967-12.804,39.185-28.549
		c5.018-18.736-9.174-39.331-38.939-56.509c-4.435-2.561-6.915-7.205-6.915-11.983c0-2.344,0.598-4.719,1.853-6.894
		c3.816-6.611,12.265-8.879,18.88-5.063c16.724,9.653,31.641,14.545,44.337,14.545c0.004,0,0.006,0,0.01,0
		c27.263,0,34.535-22.993,34.533-36.576c-0.001-13.576-7.275-36.554-34.532-36.554c-12.703,0-27.624,4.894-44.348,14.547
		c-6.613,3.815-15.064,1.548-18.88-5.061c-1.255-2.175-1.853-4.551-1.853-6.895c0-4.778,2.479-9.425,6.915-11.984
		c29.768-17.181,43.963-37.78,38.944-56.514c-4.218-15.745-21.797-28.554-39.188-28.554c-23.742,0-37.915,23.57-37.915,63.05
		c0,7.633-6.189,13.821-13.821,13.821c-7.633,0-13.821-6.188-13.821-13.821c0-39.48-14.174-63.05-37.915-63.05
		c-17.388,0-34.966,12.809-39.184,28.556c-5.02,18.736,9.173,39.335,38.938,56.514c4.435,2.561,6.915,7.208,6.915,11.984
		c0,2.344-0.597,4.72-1.852,6.894c-3.816,6.612-12.268,8.877-18.88,5.063c-16.723-9.653-31.645-14.547-44.348-14.547
		c-27.259,0-34.532,22.986-34.532,36.569c0,13.581,7.273,36.562,34.532,36.562c12.704,0,27.624-4.894,44.348-14.547
		c6.612-3.815,15.064-1.549,18.88,5.063C210.335,187.936,210.933,190.311,210.933,192.655z"/>
	<path style="fill:#11544F;" d="M256.001,239.104c-44.285,0-80.316-36.029-80.316-80.316s36.029-80.316,80.316-80.316
		s80.316,36.029,80.316,80.316S300.288,239.104,256.001,239.104z M256.001,106.115c-29.044,0-52.673,23.63-52.673,52.673
		s23.63,52.673,52.673,52.673c29.045,0,52.673-23.63,52.673-52.673S285.044,106.115,256.001,106.115z"/>
</g>
<g>
</g>
<g>
</g>
<g>
</g>
<g>
</g>
<g>
</g>
<g>
</g>
<g>
</g>
<g>
</g>
<g>
</g>
<g>
</g>
<g>
</g>
<g>
</g>
<g>
</g>
<g>
</g>
<g>
</g>
</svg>
