<?xml version="1.0" encoding="iso-8859-1"?>
<!-- Generator: Adobe Illustrator 19.0.0, SVG Export Plug-In . SVG Version: 6.00 Build 0)  -->
<svg version="1.1" id="Layer_1" xmlns="http://www.w3.org/2000/svg" xmlns:xlink="http://www.w3.org/1999/xlink" x="0px" y="0px"
	 viewBox="0 0 512.001 512.001" style="enable-background:new 0 0 512.001 512.001;" xml:space="preserve">
<path style="fill:#6AB797;" d="M13.795,330.94v24.439c0,26.762,21.695,48.458,48.458,48.458h387.494
	c26.762,0,48.458-21.695,48.458-48.458V330.94L13.795,330.94L13.795,330.94z"/>
<g>
	<path style="fill:#11544F;" d="M449.747,404.527H62.253c-27.1,0-49.148-22.047-49.148-49.148V330.94c0-0.381,0.309-0.69,0.69-0.69
		h484.411c0.381,0,0.69,0.309,0.69,0.69v24.439C498.896,382.478,476.849,404.527,449.747,404.527z M14.485,331.629v23.75
		c0,26.34,21.429,47.768,47.768,47.768h387.496c26.34,0,47.768-21.429,47.768-47.768v-23.75L14.485,331.629L14.485,331.629z"/>
	<path style="fill:#11544F;" d="M301.419,484.091h-90.836c-7.619,0-13.795-6.176-13.795-13.795v-71.152h27.59v57.357h63.246v-57.357
		h27.59v71.152C315.214,477.915,309.038,484.091,301.419,484.091z"/>
	<path style="fill:#11544F;" d="M449.747,417.632H62.253C27.927,417.632,0,389.706,0,355.378V90.163
		C0,55.837,27.927,27.91,62.253,27.91h387.496c34.326,0,62.253,27.927,62.253,62.253v265.215
		C512,389.706,484.075,417.632,449.747,417.632z M62.253,55.499c-19.113,0-34.663,15.55-34.663,34.664v265.215
		c0,19.113,15.55,34.663,34.663,34.663h387.496c19.113,0,34.663-15.55,34.663-34.663V90.163c0-19.113-15.55-34.663-34.663-34.663
		H62.253V55.499z"/>
	<path style="fill:#11544F;" d="M361.975,484.091h-211.95c-7.619,0-13.795-6.176-13.795-13.795c0-7.619,6.176-13.795,13.795-13.795
		h211.95c7.619,0,13.795,6.176,13.795,13.795C375.77,477.915,369.594,484.091,361.975,484.091z"/>
	<path style="fill:#11544F;" d="M497.515,345.195h-71.29c-7.619,0-13.795-6.176-13.795-13.795s6.176-13.795,13.795-13.795h71.29
		c7.619,0,13.795,6.176,13.795,13.795S505.134,345.195,497.515,345.195z"/>
	<path style="fill:#11544F;" d="M358.297,345.195H14.485c-7.619,0-13.795-6.176-13.795-13.795s6.176-13.795,13.795-13.795h343.812
		c7.619,0,13.795,6.176,13.795,13.795S365.915,345.195,358.297,345.195z"/>
	<path style="fill:#11544F;" d="M208.993,246.824c-1.813,0-3.642-0.357-5.384-1.097l-76.322-32.38
		c-7.013-2.976-10.287-11.073-7.311-18.087c2.974-7.013,11.071-10.288,18.087-7.311l67.26,28.535l75.991-84.492
		c3.805-4.232,9.821-5.692,15.143-3.676l90.911,34.43c7.125,2.698,10.713,10.662,8.016,17.786
		c-2.7,7.125-10.662,10.715-17.787,8.015l-82.082-31.086l-76.26,84.79C216.581,245.226,212.826,246.824,208.993,246.824z"/>
</g>
<circle style="fill:#6AB797;" cx="294.8" cy="145.344" r="27.085"/>
<path style="fill:#11544F;" d="M294.805,186.232c-22.541,0-40.88-18.338-40.88-40.88s18.338-40.88,40.88-40.88
	c22.542,0,40.88,18.339,40.88,40.88S317.347,186.232,294.805,186.232z M294.805,132.06c-7.328,0-13.29,5.962-13.29,13.29
	c0,7.328,5.962,13.29,13.29,13.29c7.329,0,13.29-5.962,13.29-13.29S302.133,132.06,294.805,132.06z"/>
<circle style="fill:#6AB797;" cx="399.187" cy="186.343" r="27.085"/>
<path style="fill:#11544F;" d="M399.191,227.219c-22.541,0-40.88-18.338-40.88-40.88s18.338-40.88,40.88-40.88
	s40.88,18.338,40.88,40.88S421.732,227.219,399.191,227.219z M399.191,173.049c-7.328,0-13.29,5.962-13.29,13.29
	c0,7.328,5.962,13.29,13.29,13.29s13.29-5.962,13.29-13.29C412.481,179.011,406.519,173.049,399.191,173.049z"/>
<circle style="fill:#6AB797;" cx="112.816" cy="186.343" r="27.085"/>
<path style="fill:#11544F;" d="M112.81,227.219c-22.541,0-40.88-18.338-40.88-40.88s18.338-40.88,40.88-40.88
	s40.88,18.338,40.88,40.88S135.351,227.219,112.81,227.219z M112.81,173.049c-7.328,0-13.29,5.962-13.29,13.29
	c0,7.328,5.962,13.29,13.29,13.29s13.29-5.962,13.29-13.29C126.1,179.011,120.138,173.049,112.81,173.049z"/>
<circle style="fill:#6AB797;" cx="205.932" cy="227.728" r="27.085"/>
<path style="fill:#11544F;" d="M205.936,268.614c-22.541,0-40.88-18.338-40.88-40.88s18.338-40.88,40.88-40.88
	s40.88,18.339,40.88,40.88S228.479,268.614,205.936,268.614z M205.936,214.444c-7.328,0-13.29,5.962-13.29,13.29
	c0,7.328,5.962,13.29,13.29,13.29c7.328,0,13.29-5.962,13.29-13.29C219.227,220.405,213.264,214.444,205.936,214.444z"/>
<g>
</g>
<g>
</g>
<g>
</g>
<g>
</g>
<g>
</g>
<g>
</g>
<g>
</g>
<g>
</g>
<g>
</g>
<g>
</g>
<g>
</g>
<g>
</g>
<g>
</g>
<g>
</g>
<g>
</g>
</svg>
